<?xml version="1.0" encoding="UTF-8"?>
<svg xmlns="http://www.w3.org/2000/svg" viewBox="0 0 220 188"
     width="220" height="188" role="img"
     aria-label="Neurofic — Centro de Neurofisiología Clínica">
  <!--
    Neurofic Logosímbolo
    Reproducción vectorial fiel al Manual de Identidad Corporativa Neurofic.
    Colores extraídos del PDF original:
      Rojo corporativo #EF1440 (C:0 M:100 Y:75 K:0)
      Grises: #7D7C7E #969696 #AAAAAC #C0BFC1 #D5D4D5 #EAEAEA
    Posiciones de cuadros: coordenadas reales del PDF, reescaladas a 220×188.
  -->
  <defs>
    <clipPath id="nf-brain">
      <path d="M -2.4 74.6 L 0.1 109.0 L 6.9 116.8 L 16.4 118.9 L 28.0 116.8 L 37.9 119.6 L 43.7 123.8 L 54.1 137.7 L 72.6 144.9 L 85.2 146.5 L 99.8 144.8 L 112.5 157.1 L 125.0 165.3 L 135.3 174.4 L 144.8 186.8 L 157.5 191.9 L 163.0 195.8 L 167.6 195.4 L 182.8 185.5 L 185.5 180.2 L 184.9 173.7 L 199.5 160.7 L 205.7 150.3 L 214.8 132.0 L 216.0 114.8 L 222.0 101.2 L 223.3 92.5 L 220.3 76.9 L 209.6 69.2 L 210.0 58.8 L 206.7 49.6 L 202.0 43.6 L 193.4 37.2 L 184.5 19.9 L 173.6 15.9 L 152.7 0.3 L 130.4 -3.1 L 108.4 -1.4 L 100.4 2.5 L 87.5 1.7 L 80.6 3.0 L 74.5 6.2 L 63.4 18.4 L 45.6 21.1 L 37.0 26.8 L 25.7 30.9 L 5.6 53.9 L -2.4 74.6 Z"/>
    </clipPath>
  </defs>

  <!-- Fondo del cerebro K:10% (#E6E6E6) -->
  <path d="M -2.4 74.6 L 0.1 109.0 L 6.9 116.8 L 16.4 118.9 L 28.0 116.8 L 37.9 119.6 L 43.7 123.8 L 54.1 137.7 L 72.6 144.9 L 85.2 146.5 L 99.8 144.8 L 112.5 157.1 L 125.0 165.3 L 135.3 174.4 L 144.8 186.8 L 157.5 191.9 L 163.0 195.8 L 167.6 195.4 L 182.8 185.5 L 185.5 180.2 L 184.9 173.7 L 199.5 160.7 L 205.7 150.3 L 214.8 132.0 L 216.0 114.8 L 222.0 101.2 L 223.3 92.5 L 220.3 76.9 L 209.6 69.2 L 210.0 58.8 L 206.7 49.6 L 202.0 43.6 L 193.4 37.2 L 184.5 19.9 L 173.6 15.9 L 152.7 0.3 L 130.4 -3.1 L 108.4 -1.4 L 100.4 2.5 L 87.5 1.7 L 80.6 3.0 L 74.5 6.2 L 63.4 18.4 L 45.6 21.1 L 37.0 26.8 L 25.7 30.9 L 5.6 53.9 L -2.4 74.6 Z" fill="#E6E6E6"/>

  <!-- Cuadrícula de tonos — extraída de los vectores del PDF -->
  <g clip-path="url(#nf-brain)">
    <path fill="#AAAAAC" d="M 135.86 15.02 L 101.35 15.02 L 101.35 4.89 C 101.35 4.89 107.4 0.38 110.92 0.93 C 115.47 1.63 122.65 0.18 127.8 -0.53 C 132.72 -1.2 135.86 0.98 135.86 0.98 Z M 135.86 15.02"/>
    <path fill="#7D7C7E" d="M 169.12 15.31 L 137.58 15.02 L 137.58 0.98 C 137.58 0.98 148.6 -0.53 156.53 5.06 C 159.19 6.94 169.12 15.31 169.12 15.31"/>
    <path fill="#D5D4D5" d="M 99.62 15.02 L 69.0 15.02 C 69.0 15.02 72.99 10.85 76.21 8.06 C 83.41 1.79 99.62 4.89 99.62 4.89 Z M 99.62 15.02"/>
    <path fill="#969696" d="M 172.1 50.53 L 137.58 50.53 L 137.58 16.79 L 170.52 16.79 C 170.52 16.79 170.73 16.79 171.25 17.25 C 171.74 17.66 172.1 17.86 172.1 17.86 Z M 172.1 50.53"/>
    <path fill="#7D7C7E" d="M 99.62 50.53 L 65.11 50.53 L 65.11 20.2 C 65.11 20.2 66.12 20.03 66.83 18.54 C 67.78 16.56 67.92 16.79 67.92 16.79 L 99.62 16.79 Z M 99.62 50.53"/>
    <path fill="#969696" d="M 63.38 50.53 L 28.87 50.53 L 28.87 32.11 C 28.87 32.11 29.41 31.19 34.81 30.2 C 40.79 29.09 44.33 23.08 49.0 22.67 C 54.76 22.16 63.38 20.86 63.38 20.86 Z M 63.38 50.53"/>
    <path fill="#C0BFC1" d="M 204.41 50.53 L 173.82 50.53 L 173.82 18.38 C 173.82 18.38 180.67 19.32 182.69 21.64 C 189.12 28.99 188.08 38.63 194.73 41.28 C 199.85 43.32 204.41 50.53 204.41 50.53"/>
    <path fill="#D5D4D5" d="M 135.86 50.53 L 101.35 50.53 L 101.35 16.79 L 135.86 16.79 Z M 135.86 50.53"/>
    <path fill="#AAAAAC" d="M 27.14 50.53 L 10.95 50.53 L 27.14 32.94 Z M 27.14 50.53"/>
    <path fill="#AAAAAC" d="M 208.34 86.05 L 173.83 86.05 L 173.83 52.31 L 204.97 52.31 C 204.97 52.31 207.06 57.33 207.49 59.18 C 208.34 62.88 207.2 65.35 207.03 68.12 C 206.83 71.54 208.34 71.36 208.34 71.36 Z M 208.34 86.05"/>
    <path fill="#7D7C7E" d="M 27.14 86.05 L 0.67 86.05 C -0.5 78.19 -0.32 77.64 0.04 75.16 C 1.26 66.8 5.14 67.6 6.11 61.03 C 7.15 53.89 10.05 52.31 10.05 52.31 L 27.14 52.31 Z M 27.14 86.05"/>
    <path fill="#D5D4D5" d="M 63.38 86.05 L 28.87 86.05 L 28.87 52.31 L 63.38 52.31 Z M 63.38 86.05"/>
    <path fill="#EAEAEA" d="M 99.62 86.05 L 65.11 86.05 L 65.11 52.31 L 99.62 52.31 Z M 99.62 86.05"/>
    <path fill="#7D7C7E" d="M 135.86 86.05 L 101.35 86.05 L 101.35 52.31 L 135.86 52.31 Z M 135.86 86.05"/>
    <path fill="#C0BFC1" d="M 172.1 86.05 L 137.58 86.05 L 137.58 52.31 L 172.1 52.31 Z M 172.1 86.05"/>
    <path fill="#C0BFC1" d="M 219.72 86.05 L 210.06 86.05 L 210.06 71.86 C 210.06 71.86 216.51 75.12 218.32 78.44 C 220.11 81.74 219.72 86.05 219.72 86.05"/>
    <path fill="#7D7C7E" d="M 212.91 121.56 L 210.06 121.56 L 210.06 87.82 L 219.73 87.82 C 219.73 87.82 222.29 92.02 219.59 100.46 C 218.35 104.4 217.65 105.9 214.37 112.0 C 212.71 115.07 212.91 121.56 212.91 121.56"/>
    <path fill="#EAEAEA" d="M 27.14 114.42 C 27.14 114.42 23.69 114.0 20.4 115.42 C 14.46 117.97 5.39 115.78 2.53 108.5 C 0.85 104.22 0.67 87.82 0.67 87.82 L 27.14 87.82 Z M 27.14 114.42"/>
    <path fill="#C0BFC1" d="M 99.62 121.56 L 65.11 121.56 L 65.11 87.82 L 99.62 87.82 Z M 99.62 121.56"/>
    <path fill="#969696" d="M 135.86 121.56 L 101.35 121.56 L 101.35 87.82 L 135.86 87.82 Z M 135.86 121.56"/>
    <path fill="#EF1440" d="M 172.1 121.56 L 137.58 121.56 L 137.58 87.82 L 172.1 87.82 Z M 172.1 121.56"/>
    <path fill="#EAEAEA" d="M 208.34 121.56 L 173.82 121.56 L 173.82 87.82 L 208.34 87.82 Z M 208.34 121.56"/>
    <path fill="#7D7C7E" d="M 63.38 121.56 L 44.84 121.56 C 44.84 121.56 41.02 117.21 36.0 116.44 C 30.34 115.58 28.87 114.42 28.87 114.42 L 28.87 87.82 L 63.38 87.82 Z M 63.38 121.56"/>
    <path fill="#C0BFC1" d="M 210.06 135.96 L 210.06 123.33 L 212.91 123.33 C 212.91 123.33 213.25 124.74 212.91 128.11 C 212.32 133.99 210.06 135.96 210.06 135.96"/>
    <path fill="#C0BFC1" d="M 63.38 139.38 C 63.38 139.38 56.1 137.43 53.43 133.37 C 51.36 130.23 46.13 123.33 46.13 123.33 L 63.38 123.33 Z M 63.38 139.38"/>
    <path fill="#D5D4D5" d="M 99.62 142.36 C 99.62 142.36 97.74 141.65 94.48 142.7 C 87.85 144.81 77.02 144.13 73.32 142.5 C 71.76 141.8 65.11 139.92 65.11 139.92 L 65.11 123.33 L 99.62 123.33 Z M 99.62 142.36"/>
    <path fill="#C0BFC1" d="M 172.1 157.07 L 137.58 157.07 L 137.58 123.34 L 172.1 123.34 Z M 172.1 157.07"/>
    <path fill="#969696" d="M 198.79 157.07 L 173.82 157.07 L 173.82 123.34 L 208.34 123.34 L 208.34 138.03 C 208.34 138.03 207.2 142.47 205.01 146.48 C 202.91 150.31 198.79 157.07 198.79 157.07"/>
    <path fill="#EAEAEA" d="M 135.86 157.07 L 118.2 157.07 C 118.2 157.07 112.75 155.91 109.95 150.69 C 107.9 146.87 101.35 142.92 101.35 142.92 L 101.35 123.34 L 135.86 123.34 Z M 135.86 157.07"/>
    <path fill="#7D7C7E" d="M 135.86 171.96 C 135.86 171.96 129.4 165.95 128.11 164.63 C 126.22 162.68 119.64 158.85 119.64 158.85 L 135.86 158.85 Z M 135.86 171.96"/>
    <path fill="#7D7C7E" d="M 173.82 187.75 L 173.82 158.85 L 197.79 158.85 C 197.79 158.85 186.23 169.74 182.81 172.24 C 181.38 173.3 184.22 178.55 182.53 181.72 C 180.37 185.76 173.82 187.75 173.82 187.75"/>
    <path fill="#D5D4D5" d="M 172.1 188.43 C 172.1 188.43 164.76 198.71 159.78 190.3 C 158.91 188.84 151.29 188.8 146.47 184.97 C 140.66 180.35 137.58 173.3 137.58 173.3 L 137.58 158.85 L 172.1 158.85 Z M 172.1 188.43"/>
  </g>
</svg>